<svg width="172" height="42" viewBox="0 0 172 42" fill="none" xmlns="http://www.w3.org/2000/svg">
<path d="M10.5602 35.7202C10.2082 35.7202 9.80819 35.6722 9.36019 35.5762C8.91219 35.5122 8.54419 35.4322 8.25619 35.3362V26.0242C8.70419 26.1202 9.21619 26.2002 9.79219 26.2642C10.3682 26.3282 10.8802 26.3602 11.3282 26.3602C11.9362 26.3602 12.4642 26.2962 12.9122 26.1682C13.3602 26.0402 13.6482 25.8482 13.7762 25.5922L0.0961914 1.40018H14.2082L19.2002 11.9602L22.9442 1.40018H35.6162L25.7282 26.1202C24.9602 28.0722 24.1442 29.6722 23.2802 30.9202C22.4162 32.1362 21.4082 33.1122 20.2562 33.8482C19.1042 34.5522 17.7442 35.0322 16.1762 35.2882C14.6402 35.5762 12.7682 35.7202 10.5602 35.7202Z" fill="white"/>
<path d="M49.8658 27.1762C49.1298 27.5602 48.2978 27.8802 47.3698 28.1362C46.4738 28.3602 45.3858 28.4722 44.1058 28.4722C40.9698 28.4722 38.7458 27.7362 37.4338 26.2642C36.1218 24.7922 35.4658 22.4722 35.4658 19.3042V9.56018H46.0258V18.1042C46.0258 19.3202 46.6658 19.9282 47.9458 19.9282C48.3938 19.9282 48.7778 19.8642 49.0978 19.7362C49.4498 19.6082 49.7058 19.4642 49.8658 19.3042V9.56018H60.4258V35.0002H49.8658V27.1762Z" fill="white"/>
<path d="M63.7896 9.56018H74.3496V20.1202L81.3096 9.56018H90.1896V35.0002H79.6296V24.4402L72.6696 35.0002H63.7896V9.56018Z" fill="white"/>
<path d="M119.235 35.7202C116.643 35.7202 114.435 35.3682 112.611 34.6642C110.787 33.9602 109.299 32.9842 108.147 31.7362C106.995 30.4562 106.147 28.9522 105.603 27.2242C105.091 25.4962 104.835 23.6082 104.835 21.5602H115.587C115.587 22.2642 115.635 22.9202 115.731 23.5282C115.859 24.1042 116.051 24.6162 116.307 25.0642C116.595 25.4802 116.963 25.8162 117.411 26.0722C117.891 26.2962 118.499 26.4082 119.235 26.4082C120.003 26.4082 120.643 26.2322 121.155 25.8802C121.667 25.4962 121.923 24.9202 121.923 24.1522C121.923 23.3202 121.683 22.7282 121.203 22.3762C120.723 22.0242 119.987 21.8482 118.995 21.8482H117.075V14.0722H118.995C119.539 14.0722 120.003 13.9122 120.387 13.5922C120.771 13.2402 120.963 12.7282 120.963 12.0562C120.963 11.3842 120.787 10.8722 120.435 10.5202C120.083 10.1682 119.603 9.99218 118.995 9.99218C118.035 9.99218 117.299 10.3442 116.787 11.0482C116.307 11.7522 116.067 13.0162 116.067 14.8402H105.315C105.315 10.1042 106.435 6.56818 108.675 4.23218C110.947 1.86418 114.467 0.680176 119.235 0.680176C123.843 0.680176 127.315 1.54418 129.651 3.27218C131.987 4.96818 133.155 7.40018 133.155 10.5682C133.155 12.2962 132.691 13.7842 131.763 15.0322C130.835 16.2802 129.555 17.1762 127.923 17.7202C130.003 18.2002 131.475 19.0802 132.339 20.3602C133.203 21.6402 133.635 23.1602 133.635 24.9202C133.635 26.6802 133.299 28.2322 132.627 29.5762C131.987 30.9202 131.043 32.0562 129.795 32.9842C128.547 33.8802 127.027 34.5522 125.235 35.0002C123.475 35.4802 121.475 35.7202 119.235 35.7202Z" fill="white"/>
<path d="M135.574 24.8242H138.454C139.286 22.9042 139.926 20.8402 140.374 18.6322C140.854 16.4242 141.094 13.8802 141.094 11.0002V1.40018H168.214V24.8242H171.574V41.2402H160.822V35.0002H146.326V41.2402H135.574V24.8242ZM155.542 24.8242V11.5762H151.846V15.0802C151.846 16.8082 151.734 18.5362 151.51 20.2642C151.286 21.9602 150.95 23.4802 150.502 24.8242H155.542Z" fill="white"/>
</svg>
